#N canvas 0 49 638 973 10;
#X obj 121 264 dac~;
#X obj 122 206 bng 15 250 50 0 empty empty empty 17 7 0 10 -262144
-1 -1;
#X obj 122 5 key;
#X obj 122 73 mtof;
#X obj 122 52 expr ($f1/128)*48+30;
#X obj 83 42 vsl 15 128 40 4000 0 1 empty empty empty 0 -9 0 10 -262144
-1 -1 1600 1;
#X floatatom 122 95 5 0 0 0 - - -;
#X floatatom 83 180 5 0 0 0 - - -;
#X obj 122 29 spigot;
#X obj 153 5 tgl 15 0 empty empty empty 17 7 0 10 -262144 -1 -1 0 1
;
#X text 47 -35 selecione a freqüência no slider vertical e em seguida
clique no BANG. Se quiser \, marque o toggle abaixo para usar o teclado
como instrumento musical.;
#X text 175 5 liga teclado;
#X text 16 180 freqüência;
#X text 82 207 BANG:;
#X obj 122 132 i 0;
#X obj 146 132 + 1;
#X obj 122 111 bng 15 250 50 0 empty empty empty 17 7 0 10 -262144
-1 -1;
#X obj 122 180 route 0 1 2 3 4;
#X obj 122 156 pack f f;
#X obj 214 206 bng 15 250 50 0 empty empty empty 17 7 0 10 -262144
-1 -1;
#X obj 306 205 bng 15 250 50 0 empty empty empty 17 7 0 10 -262144
-1 -1;
#X obj 397 205 bng 15 250 50 0 empty empty empty 17 7 0 10 -262144
-1 -1;
#X obj 487 205 bng 15 250 50 0 empty empty empty 17 7 0 10 -262144
-1 -1;
#X obj 171 132 sel 5;
#X msg 209 132 0;
#X text 256 129 Obs: o bloco ao lado usa um contador de 0 a 4 para
rotear cada uma das freqüências tocadas para um sintetizador diferente
\, o que permite tocar acordes de até 5 notas simultâneas.;
#X obj 296 34 % 24;
#X obj 294 58 + 50;
#X obj 122 227 KS;
#X obj 214 227 KS;
#X obj 306 227 KS;
#X obj 397 227 KS;
#X obj 487 227 KS;
#X connect 1 0 28 0;
#X connect 2 0 8 0;
#X connect 3 0 6 0;
#X connect 5 0 7 0;
#X connect 5 0 28 1;
#X connect 6 0 18 1;
#X connect 6 0 16 0;
#X connect 8 0 4 0;
#X connect 8 0 26 0;
#X connect 9 0 8 1;
#X connect 14 0 15 0;
#X connect 14 0 18 0;
#X connect 15 0 23 0;
#X connect 16 0 14 0;
#X connect 17 0 1 0;
#X connect 17 0 28 1;
#X connect 17 1 19 0;
#X connect 17 1 29 1;
#X connect 17 2 20 0;
#X connect 17 2 30 1;
#X connect 17 3 21 0;
#X connect 17 3 31 1;
#X connect 17 4 22 0;
#X connect 17 4 32 1;
#X connect 18 0 17 0;
#X connect 19 0 29 0;
#X connect 20 0 30 0;
#X connect 21 0 31 0;
#X connect 22 0 32 0;
#X connect 23 0 24 0;
#X connect 23 1 14 1;
#X connect 24 0 14 1;
#X connect 26 0 27 0;
#X connect 27 0 3 0;
#X connect 28 0 0 0;
#X connect 29 0 0 1;
#X connect 30 0 0 0;
#X connect 31 0 0 0;
#X connect 32 0 0 1;
