#N canvas 0 49 638 973 12;
#X obj 131 169 bng 15 250 50 0 empty empty empty 0 -6 0 8 -262144 -1
-1;
#X floatatom 203 205 5 0 0 0 - - -;
#X obj 164 239 del;
#X msg 131 265 1;
#X msg 164 265 0;
#X text 128 147 start;
#X obj 43 269 noise~;
#X obj 44 338 *~;
#X obj 103 476 *~ 0.99;
#X floatatom 170 452 5 0 0 0 - - -;
#X obj 224 339 *~ 0.5;
#X obj 311 328 z~ 1;
#X obj 312 355 *~ 0.5;
#X obj 225 392 +~;
#X floatatom 203 137 5 0 0 0 - - -;
#X text 44 41 3.4.2.10. Karplus Strong 3;
#X text 262 139 Frequency (Hz.);
#X text 367 325 Delay by 1 Sample;
#X text 369 370 calculates average;
#X text 219 451 damping factor (between 0 and 1);
#X text 376 613 www.pd-tutorial.com;
#X text 381 586 Johannes Kreidler;
#X obj 203 174 expr 1000 / $f1;
#X text 254 205 duration of one period (ms);
#X text 45 61 http://www.pd-tutorial.com/english/ch03s04.html;
#X obj 203 95 inlet;
#X obj 47 98 inlet;
#X obj 103 522 outlet~;
#X obj 43 579 delwrite~ buffer\$0 1000;
#X obj 224 296 vd~ buffer\$0 100;
#X connect 0 0 2 0;
#X connect 0 0 3 0;
#X connect 1 0 2 1;
#X connect 1 0 29 0;
#X connect 2 0 4 0;
#X connect 3 0 7 1;
#X connect 4 0 7 1;
#X connect 6 0 7 0;
#X connect 7 0 28 0;
#X connect 8 0 27 0;
#X connect 8 0 28 0;
#X connect 9 0 8 1;
#X connect 10 0 13 0;
#X connect 11 0 12 0;
#X connect 12 0 13 1;
#X connect 13 0 8 0;
#X connect 14 0 22 0;
#X connect 22 0 1 0;
#X connect 25 0 14 0;
#X connect 26 0 0 0;
#X connect 29 0 10 0;
#X connect 29 0 11 0;
